<?xml version="1.0" standalone="no"?><!DOCTYPE svg PUBLIC "-//W3C//DTD SVG 1.1//EN" "http://www.w3.org/Graphics/SVG/1.1/DTD/svg11.dtd"><svg t="1725861871459" class="icon" viewBox="0 0 1024 1024" version="1.1" xmlns="http://www.w3.org/2000/svg" p-id="9803" xmlns:xlink="http://www.w3.org/1999/xlink" width="200" height="200"><path d="M714.23 748.92c-66.11 0-200.18-67.95-264.46-132.23-64.28-64.28-132.23-198.4-132.23-264.46 0 0 50.64-81.65 83.73-81.65s132.23 99.2 99.2 132.23-66.18 33.03-66.18 66.11c0 33.03 33.09 66.11 66.11 99.2 33.09 33.09 66.11 66.11 99.2 66.11s33.09-33.09 66.11-66.11c33.09-33.09 132.23 66.11 132.23 99.2 0.02 33.03-83.71 81.6-83.71 81.6zM205.86 323.79H115.4v-53.21h90.46v53.21z m0 106.36h-53.21v-53.21h53.21v53.21z m0 106.42H115.4v-53.15h90.46v53.15z m0 106.35h-53.21v-53.21h53.21v53.21z m0 106.36H115.4v-53.21h90.46v53.21zM792.88 98.23H234.73c-66.05 0-119.63 53.58-119.63 119.63v558.15c0 66.05 53.58 119.63 119.63 119.63h558.15c66.05 0 119.63-53.58 119.63-119.63V217.86c-0.06-66.12-53.58-119.63-119.63-119.63z" fill="#ff8f4b" p-id="9804"></path></svg>