<?xml version="1.0" standalone="no"?><!DOCTYPE svg PUBLIC "-//W3C//DTD SVG 1.1//EN" "http://www.w3.org/Graphics/SVG/1.1/DTD/svg11.dtd"><svg t="1725861903676" class="icon" viewBox="0 0 1024 1024" version="1.1" xmlns="http://www.w3.org/2000/svg" p-id="10912" xmlns:xlink="http://www.w3.org/1999/xlink" width="200" height="200"><path d="M527.36 819.2c0-76.8 40.96-143.36 102.4-179.2-48.64-35.84-107.52-53.76-168.96-53.76h-153.6C143.36 586.24 17.92 716.8 17.92 885.76c0 30.72 12.8 48.64 40.96 48.64H563.2c-23.04-30.72-35.84-71.68-35.84-115.2z" fill="#ff8f4b" p-id="10913"></path><path d="M931.84 729.6c-5.12 0-53.76 23.04-151.04 66.56l17.92-156.16c0-5.12 0-5.12-5.12-12.8 0-5.12-5.12-5.12-12.8-5.12h-23.04c-48.64 0-89.6 17.92-125.44 48.64-35.84 30.72-58.88 71.68-66.56 120.32-5.12 53.76 5.12 102.4 40.96 143.36 30.72 40.96 76.8 66.56 133.12 71.68h23.04c48.64 0 89.6-17.92 125.44-48.64 35.84-30.72 58.88-71.68 66.56-120.32 5.12-30.72 0-66.56-12.8-97.28 0-5.12-5.12-10.24-10.24-10.24z" fill="#ff8f4b" p-id="10914"></path><path d="M977.92 670.72c-12.8-23.04-30.72-48.64-53.76-66.56-23.04-17.92-48.64-30.72-76.8-30.72-5.12 0-5.12 0-12.8 5.12l-17.92 151.04c0 5.12 0 5.12 5.12 5.12h10.24l138.24-58.88c2.56 0 7.68 0 7.68-5.12zM396.8 46.08c-138.24 0-245.76 107.52-245.76 245.76s107.52 245.76 245.76 245.76 245.76-107.52 245.76-245.76-107.52-245.76-245.76-245.76z m107.52 330.24c0 5.12 0 5.12 0 0-17.92 35.84-58.88 53.76-107.52 53.76s-89.6-23.04-107.52-53.76c-5.12-12.8 0-23.04 12.8-30.72 12.8-5.12 30.72 0 35.84 12.8 5.12 17.92 30.72 30.72 58.88 30.72 23.04 0 48.64-12.8 58.88-23.04 5.12-17.92 17.92-23.04 35.84-17.92 12.8-2.56 17.92 15.36 12.8 28.16z" fill="#ff8f4b" p-id="10915"></path></svg>