<?xml version="1.0" standalone="no"?><!DOCTYPE svg PUBLIC "-//W3C//DTD SVG 1.1//EN" "http://www.w3.org/Graphics/SVG/1.1/DTD/svg11.dtd"><svg t="1725861075199" class="icon" viewBox="0 0 1024 1024" version="1.1" xmlns="http://www.w3.org/2000/svg" p-id="5893" xmlns:xlink="http://www.w3.org/1999/xlink" width="200" height="200"><path d="M712.848 706.669a128.319 128.319 0 0 0-33.834-4.522c-47.452 0-88.92 25.655-111.32 63.904-7.24 12.307-19.784 20.703-34.048 21.635-5.985 0.396-12.006 0.575-18.064 0.575-140.134 0-256.113-103.264-276.363-237.888-2.58-17.295 5.59-34.338 20.501-43.38 37.344-22.604 62.325-63.652 62.325-110.548 0-25.296-7.275-48.869-19.82-68.783-22.867-36.275-63.222-60.387-109.204-60.387-68.957 0-125.261 54.144-128.845 122.282-0.107 2.296-0.18 4.592-0.18 6.89 0 6.566 0.502 12.988 1.434 19.267 20.932 304.374 274.14 544.774 583.476 544.774 6.846 0 13.69-0.144 20.465-0.395 3.19 0.251 6.38 0.395 9.642 0.395 9.102 0 17.955-0.933 26.485-2.726 58.563-12.236 102.537-64.19 102.537-126.444 0.003-59.596-40.352-109.758-95.187-124.65m-46.731-97.855c-19.787 0-35.84-16.053-35.84-35.84 0-98.933-80.384-179.434-179.2-179.434-19.787 0-35.84-16.053-35.84-35.84s16.053-35.84 35.84-35.84c138.344 0 250.88 112.653 250.88 251.114 0 19.787-16.053 35.84-35.84 35.84z m129.01-21.514c-19.788 0-35.84-16.053-35.84-35.84 0-158.293-128.613-287.093-286.72-287.093-19.788 0-35.84-16.052-35.84-35.84 0-19.787 16.052-35.84 35.84-35.84 197.633 0 358.4 160.954 358.4 358.773 0 19.787-16.053 35.84-35.84 35.84z m129.033-21.536c-19.787 0-35.84-16.053-35.84-35.84 0-217.653-176.867-394.73-394.24-394.73-19.787 0-35.84-16.052-35.84-35.84 0-19.787 16.053-35.84 35.84-35.84 256.9 0 465.92 209.231 465.92 466.41 0 19.787-16.053 35.84-35.84 35.84z" p-id="5894" fill="#4ce067"></path></svg>