<?xml version="1.0" standalone="no"?><!DOCTYPE svg PUBLIC "-//W3C//DTD SVG 1.1//EN" "http://www.w3.org/Graphics/SVG/1.1/DTD/svg11.dtd"><svg t="1725862613550" class="icon" viewBox="0 0 1024 1024" version="1.1" xmlns="http://www.w3.org/2000/svg" p-id="48157" xmlns:xlink="http://www.w3.org/1999/xlink" width="200" height="200"><path d="M145.38676148 169.62051792h635.67007289c13.04894578 0 25.47651318 4.97102697 34.79718874 14.29170253 9.32067555 9.32067555 14.29170252 21.74824297 14.29170252 34.79718873V903.46837333c0 13.04894578-4.97102697 25.47651318-14.29170252 34.79718875-9.32067555 9.32067555-21.74824297 14.29170252-34.79718874 14.29170251H145.38676148c-13.04894578 0-25.47651318-4.97102697-34.79718873-14.29170251-9.32067555-9.32067555-14.29170252-21.74824297-14.29170253-34.79718875V218.70940918c0-27.3406483 21.74824297-49.08889125 49.08889126-49.08889126z m97.55640415 439.93588623v195.73418667h49.08889126v-195.73418667h-49.08889126z m195.73418667 49.08889126v146.64529541h49.08889125v-146.64529541h-49.08889125z m195.73418667-146.64529541v293.29059082h49.08889125V512h-49.08889125z m-170.25767349 8.69929718l239.2306726-141.67426843-24.85513483-42.2537292-206.29761895 122.41153897-108.74121482-110.60534993-149.13080889 99.42053926 27.3406483 40.38959407L356.65540741 411.336704l107.49845807 109.36259318z m414.45937304 333.6801849V169.62051792c0-13.04894578-4.97102697-25.47651318-14.29170252-34.79718874-9.32067555-9.32067555-21.74824297-14.29170252-34.79718875-14.29170251H194.47565275v-49.08889126h635.67007288c54.05991822 0 97.55640415 43.49648592 97.55640415 97.55640414V853.7581037H878.61323852z m0 0" p-id="48158" fill="#ffd97e"></path></svg>