<?xml version="1.0" standalone="no"?><!DOCTYPE svg PUBLIC "-//W3C//DTD SVG 1.1//EN" "http://www.w3.org/Graphics/SVG/1.1/DTD/svg11.dtd"><svg t="1724212358374" class="icon" viewBox="0 0 1024 1024" version="1.1" xmlns="http://www.w3.org/2000/svg" p-id="18061" xmlns:xlink="http://www.w3.org/1999/xlink" width="200" height="200"><path d="M1041.41437155 1007.85993955H-17.41437155c-6.2137837 0-11.18481067-4.97102697-11.18481067-11.18481066v-32.31167526c0-6.2137837 4.97102697-11.18481067 11.18481067-11.18481066h1057.58598637c6.2137837 0 11.18481067 4.97102697 11.18481066 11.18481066V996.67512889c0 6.2137837-3.72827022 11.18481067-9.94205393 11.18481066zM809.01886103 704.62729482H592.77918815c-2.48551348 0-6.2137837-1.24275675-7.45654045-3.72827023-2.48551348-2.48551348-3.72827022-4.97102697-3.72827022-7.45654044V661.13080889c0-6.2137837 4.97102697-11.18481067 11.18481067-11.18481067h216.23967288c6.2137837 0 11.18481067 4.97102697 11.18481067 11.18481067v32.31167526c0 6.2137837-4.97102697 11.18481067-11.18481067 11.18481067zM1009.1026963 16.14006045H14.8973037c-6.2137837 0-11.18481067 4.97102697-11.18481067 11.18481066v842.58907022c0 6.2137837 4.97102697 11.18481067 11.18481067 11.18481067h994.2053926c6.2137837 0 11.18481067-4.97102697 11.18481067-11.18481067V27.32487111c-1.24275675-6.2137837-6.2137837-11.18481067-11.18481067-11.18481066zM295.76032711 205.03908503c65.86610725 0 119.30464711 53.43853985 119.30464711 119.30464712s-53.43853985 119.30464711-119.30464711 119.3046471-119.30464711-53.43853985-119.30464711-119.3046471c1.24275675-65.86610725 53.43853985-119.30464711 119.30464711-119.30464712z m-118.06189036 310.68918519c0-6.2137837 4.97102697-11.18481067 11.18481066-11.18481067h216.23967289c6.2137837 0 11.18481067 4.97102697 11.18481067 11.18481067v32.31167526c0 6.2137837-4.97102697 11.18481067-11.18481067 11.18481067H187.64049067c-2.48551348 0-6.2137837-1.24275675-7.45654045-3.72827023s-3.72827022-4.97102697-3.72827022-7.45654044v-32.31167526z m658.66107258-104.39156622l-19.88410785 21.12686459-85.75021511 85.75021511c-2.48551348 2.48551348-4.97102697 3.72827022-7.45654045 3.72827022-2.48551348 0-6.2137837-1.24275675-7.45654044-3.72827022l-22.36962133-22.36962133c-3.72827022-3.72827022-3.72827022-11.18481067 0-14.91308089l48.46751288-48.46751289H673.5583763L401.39465008 700.89902459c-2.48551348 2.48551348-4.97102697 4.97102697-8.69929719 4.97102696H187.64049067c-2.48551348 0-6.2137837-1.24275675-7.45654045-3.72827022-2.48551348-2.48551348-3.72827022-4.97102697-3.72827022-7.45654044v-32.31167526c0-6.2137837 4.97102697-11.18481067 11.18481067-11.18481066H375.29675852l268.435456-268.435456c2.48551348-2.48551348 4.97102697-4.97102697 8.69929718-4.97102697h89.47848533l-50.95302636-50.95302637c-2.48551348-2.48551348-3.72827022-4.97102697-3.72827022-7.45654045 0-2.48551348 1.24275675-6.2137837 3.72827022-7.45654043l22.36962133-22.36962134c2.48551348-2.48551348 4.97102697-3.72827022 7.45654045-3.72827023 2.48551348 0 6.2137837 1.24275675 7.45654044 3.72827023l106.8770797 106.8770797c2.48551348 2.48551348 3.72827022 4.97102697 3.72827023 7.45654044 0 2.48551348-1.24275675 4.97102697-2.48551349 7.45654045z m0 0" p-id="18062"></path></svg>